<svg xmlns="http://www.w3.org/2000/svg" viewBox="0 0 300 300" width="100%" height="100%">
  <defs>
    <filter id="shadow" x="-10%" y="-10%" width="120%" height="120%">
      <feDropShadow dx="0" dy="4" stdDeviation="4" flood-opacity="0.15" />
    </filter>
  </defs>

  <circle cx="150" cy="150" r="140" fill="#f8f9fa" />

  <g filter="url(#shadow)">
    <path d="M 180 170
             L 240 170
             A 10 10 0 0 0 250 160
             L 250 130
             A 5 5 0 0 0 245 125
             L 230 125"
          fill="none" stroke="#2c3e50" stroke-width="8" stroke-linecap="round" stroke-linejoin="round" />

    <path d="M 115 105
             Q 180 145 235 125"
          fill="none" stroke="#f1c40f" stroke-width="6" opacity="0.6" stroke-linecap="round" />

    <rect x="60" y="210" width="180" height="15" fill="#00b16a" rx="3" />

    <rect x="110" y="150" width="70" height="60" fill="#8e44ad" />

    <rect x="110" y="130" width="70" height="20" fill="#f1c40f" />

    <circle cx="130" cy="140" r="3" fill="#2c3e50" />
    <circle cx="160" cy="140" r="3" fill="#2c3e50" />

    <g transform="translate(100, 130)">
      <circle cx="0" cy="0" r="55" fill="#e67e22" />

      <circle cx="0" cy="0" r="46" fill="#f39c12" />

      <circle cx="0" cy="0" r="40" fill="#e74c3c" />

      <circle cx="0" cy="0" r="16" fill="#2c3e50" />

      <path d="M -16 0 L 16 0" stroke="#1a252f" stroke-width="4" />
      <path d="M -8 -16 L -8 -6" stroke="#1a252f" stroke-width="4" />
    </g>
  </g>
</svg>
